<svg width="74" height="22" viewBox="0 0 74 22" fill="none" xmlns="http://www.w3.org/2000/svg">
<path fill-rule="evenodd" clip-rule="evenodd" d="M0 6.92674V6.98089L12.5102 12.8041L25.0646 6.96101V6.9462L12.5102 1.10351L0 6.92674ZM4.51022 6.95381L12.5106 3.22989L20.5119 6.95381L12.5102 10.6773L4.51022 6.95381V6.95381ZM12.5102 15.0659L0 9.32981V11.4511L12.5102 17.2007L25.0646 11.4317V9.30993L12.5102 15.0659ZM12.5102 19.3686L0 13.6317V15.7534L12.5102 21.5034L25.0646 15.7344V13.613L12.5102 19.3686ZM71.1476 11.0932C71.1549 10.1694 70.8113 9.27772 70.1869 8.60043C69.8933 8.28383 69.5398 8.02951 69.1471 7.85243C68.7486 7.67249 68.3163 7.58073 67.8794 7.58335C67.4426 7.58073 67.0103 7.67249 66.6118 7.85243C66.2191 8.0295 65.8655 8.28382 65.572 8.60043C64.9476 9.27785 64.6039 10.1697 64.6112 11.0936C64.6039 12.0175 64.9475 12.9094 65.572 13.5868C65.8656 13.9033 66.2191 14.1574 66.6118 14.3344C67.0103 14.5145 67.4426 14.6064 67.8794 14.6039C68.3163 14.6064 68.7486 14.5145 69.1471 14.3344C69.5398 14.1574 69.8933 13.9033 70.1869 13.5868C70.8114 12.9094 71.1551 12.0176 71.1476 11.0936V11.0932ZM74 11.0932C74 11.958 73.8415 12.7589 73.5249 13.4967C73.2204 14.2164 72.7758 14.8675 72.2173 15.4115C71.6627 15.9501 71.0122 16.3757 70.2664 16.688C69.5201 17.0006 68.7246 17.1567 67.8794 17.1567C67.0343 17.1567 66.2422 17.0002 65.5026 16.688C64.7803 16.387 64.1215 15.9505 63.5614 15.4018C63.004 14.8528 62.5597 14.1987 62.2538 13.4768C61.9372 12.739 61.7786 11.9444 61.7786 11.0936C61.7786 10.2559 61.9405 9.46816 62.2639 8.73031C62.5772 8.00727 63.0242 7.35072 63.5811 6.79558C64.1391 6.24157 64.7983 5.80139 65.5224 5.49927C66.262 5.18662 67.0474 5.03051 67.8794 5.03051C68.7246 5.03051 69.5201 5.18662 70.2664 5.49927C71.0122 5.81151 71.6627 6.23712 72.2173 6.7757C72.7723 7.31385 73.2079 7.95566 73.5249 8.70028C73.8415 9.44489 74 10.2424 74 11.0936V11.0932ZM60.7885 16.7975C60.544 16.9108 60.2884 16.9977 60.0258 17.0569C59.7368 17.124 59.4411 17.1575 59.1445 17.1567C58.7219 17.1567 58.3158 17.1 57.926 16.9875C57.5502 16.8818 57.202 16.6945 56.906 16.4388C56.6159 16.1862 56.3846 15.857 56.2127 15.4513C56.0411 15.046 55.9553 14.5574 55.9553 13.9854V0.303467H58.867V13.4865C58.867 13.9655 58.9629 14.2946 59.1542 14.474C59.3459 14.6538 59.5734 14.7435 59.8374 14.7435C60.1679 14.7435 60.4849 14.6437 60.7885 14.4444V16.7975V16.7975ZM54.6675 5.30974L49.5174 19.0115C49.1347 20.0354 48.6327 20.7732 48.0121 21.2255C47.3915 21.6773 46.652 21.9037 45.7934 21.9037C45.6477 21.9027 45.5022 21.8927 45.3578 21.8736C45.2041 21.8546 45.0519 21.8246 44.9024 21.7839L43.9514 19.1114C44.174 19.2171 44.4063 19.3007 44.6451 19.361C44.8649 19.4183 45.0908 19.4482 45.3178 19.4502C45.7673 19.4502 46.1764 19.3474 46.5464 19.1414C46.916 18.9349 47.1998 18.5529 47.3978 17.9944L47.7943 16.8377L43.377 5.30974H46.4867L49.1213 12.7288L51.5973 5.30974H54.6675V5.30974ZM42.6837 3.57427H35.2366V7.28424H42.5853V9.79731H35.2366V16.8576H32.2262V0.922005H42.6841V3.5747L42.6837 3.57427Z" fill="white"/>
</svg>
